Coordinates
version=1
nRows=14
nColumns=24
inDegrees=yes

Units are S.I. units (second, meters, Newtons, ...)
Angles are in degrees.

endheader
time	pelvis_tilt	pelvis_list	pelvis_rotation	pelvis_tx	pelvis_ty	pelvis_tz	hip_flexion_r	hip_adduction_r	hip_rotation_r	knee_angle_r	ankle_angle_r	subtalar_angle_r	mtp_angle_r	hip_flexion_l	hip_adduction_l	hip_rotation_l	knee_angle_l	ankle_angle_l	subtalar_angle_l	mtp_angle_l	lumbar_extension	lumbar_bending	lumbar_rotation
      0.92050000	     -7.89547449	      1.15419889	     -0.00694325	     -0.15492602	      1.04048726	      0.30539138	     -1.07377988	      0.56628651	     -0.58457212	    -13.50281706	     21.79073767	     -2.92747872	      1.38107206	     36.03458496	     -1.54340094	     -1.54270162	    -20.49356154	      9.80909664	      6.53575511	      3.63528641	     -4.66299480	      1.73341164	      4.31036738
      0.92466667	     -7.92319291	      1.05899270	     -0.06770782	     -0.14898831	      1.03904548	      0.30494947	     -1.30882776	      0.63725542	     -0.54559381	    -13.70382785	     22.00551289	     -2.91446712	      1.35824844	     36.07992751	     -1.59810421	     -1.46403078	    -20.13634841	      9.88324745	      6.54701534	      3.62998174	     -4.57902483	      1.82650632	      4.32443398
      0.92883333	     -7.93189918	      0.98253847	     -0.13456498	     -0.14305427	      1.03764833	      0.30444415	     -1.50723197	      0.66649121	     -0.64781110	    -14.03136969	     22.31481284	     -2.62615814	      1.23177937	     36.09188426	     -1.61652795	     -1.32414388	    -19.84656684	      9.91147762	      6.34810876	      3.59189973	     -4.49999214	      1.90510803	      4.36777526
      0.93300000	     -7.94238848	      0.88836446	     -0.20898155	     -0.13707218	      1.03625680	      0.30400806	     -1.72338012	      0.73119331	     -0.60103670	    -14.31895130	     22.53295275	     -2.59962017	      1.20451790	     36.12013124	     -1.66975406	     -1.26585763	    -19.68072859	      9.98423023	      6.30653268	      3.58223405	     -4.42458110	      1.99787900	      4.38079542
      0.93716667	     -7.93871828	      0.83787124	     -0.28401498	     -0.13102774	      1.03492078	      0.30351172	     -1.91427921	      0.72509327	     -0.70546857	    -14.70258582	     22.79825034	     -2.29531394	      1.11443475	     36.10443995	     -1.66536687	     -1.17455966	    -19.55128343	     10.00525726	      6.14472835	      3.54399439	     -4.35290754	      2.05615956	      4.42288790
      0.94133333	     -7.92303147	      0.76037180	     -0.36538982	     -0.12499402	      1.03361364	      0.30308717	     -2.12214066	      0.76514340	     -0.66872500	    -15.07528742	     22.98993568	     -2.23362068	      1.08737129	     36.09488404	     -1.69888580	     -1.11750318	    -19.54533850	     10.05179212	      6.08336664	      3.52998970	     -4.30899293	      2.11752622	      4.43357668
      0.94550000	     -7.93023960	      0.71402757	     -0.44802490	     -0.11888870	      1.03230609	      0.30259540	     -2.26587149	      0.74812517	     -0.76110658	    -15.54138579	     23.21097603	     -1.91826898	      1.03223099	     36.08539951	     -1.68834761	     -1.02486997	    -19.57930226	     10.05020383	      5.96305512	      3.49563932	     -4.20995405	      2.15987571	      4.47084857
      0.94966667	     -7.92898135	      0.65322068	     -0.53559278	     -0.11278404	      1.03103671	      0.30214113	     -2.41174069	      0.75463482	     -0.77128840	    -16.02104282	     23.37454336	     -1.73721735	      1.00130195	     36.07777377	     -1.69752068	     -0.94377508	    -19.71583138	     10.05244461	      5.88769214	      3.46951844	     -4.13233708	      2.20932572	      4.48669762
      0.95383333	     -7.89683666	      0.62413499	     -0.62219196	     -0.10663952	      1.02987156	      0.30168413	     -2.56667339	      0.71820669	     -0.82469893	    -16.55665480	     23.53029679	     -1.49148196	      0.98854594	     36.02834975	     -1.67333019	     -0.87479638	    -19.91683710	     10.01772042	      5.80120269	      3.44360026	     -4.08955241	      2.21033037	      4.50236695
      0.95800000	     -7.88857435	      0.57398863	     -0.70548694	     -0.10048738	      1.02868028	      0.30121081	     -2.67727086	      0.70305734	     -0.86491962	    -17.13186054	     23.63962072	     -1.27731243	      1.00114902	     36.01832861	     -1.66616580	     -0.79025800	    -20.21569281	      9.97791323	      5.73421525	      3.42348933	     -4.00771622	      2.24430729	      4.51140423
      0.96216667	     -7.85385897	      0.53704064	     -0.79797210	     -0.09433623	      1.02760027	      0.30075953	     -2.79331465	      0.67115420	     -0.87485140	    -17.75228068	     23.73222564	     -1.04960477	      1.03454719	     35.97419921	     -1.64913576	     -0.69756098	    -20.57156135	      9.91664515	      5.67379071	      3.41128932	     -3.97239406	      2.25224333	      4.51376429
      0.96633333	     -7.85756283	      0.49589166	     -0.88322740	     -0.08815413	      1.02648151	      0.30027155	     -2.83726744	      0.63432829	     -0.93701548	    -18.43976963	     23.77181241	     -0.78977447	      1.09568032	     35.98137127	     -1.63138039	     -0.59489193	    -21.00898657	      9.84113306	      5.62152218	      3.40210947	     -3.87076436	      2.27152435	      4.51470876
      0.97050000	     -7.82014356	      0.48385620	     -0.96375100	     -0.08195435	      1.02549919	      0.29976589	     -2.89654913	      0.55648975	     -1.03238520	    -19.18907125	     23.78760299	     -0.48477273	      1.21041450	     35.93604751	     -1.58105978	     -0.49323254	    -21.48427539	      9.74517529	      5.55913345	      3.39455079	     -3.81724800	      2.25027667	      4.50451678
      0.97466667	     -7.80178704	      0.44467155	     -1.05254677	     -0.07577823	      1.02453365	      0.29927357	     -2.91307520	      0.51000914	     -1.06607758	    -19.97492160	     23.74915292	     -0.21594947	      1.32818597	     35.92943120	     -1.56202680	     -0.37248424	    -22.04609487	      9.65570328	      5.49460859	      3.39197150	     -3.75710429	      2.26266444	      4.49164999
